<?xml version="1.0" encoding="UTF-8" standalone="no"?>
<svg
   class="icon icon-tabler icon-tabler-users"
   width="24"
   height="24"
   viewBox="0 0 24 24"
   stroke-width="1.5"
   stroke="currentColor"
   fill="none"
   stroke-linecap="round"
   stroke-linejoin="round"
   version="1.1"
   id="svg5"
   sodipodi:docname="users.svg"
   inkscape:version="1.3.1 (9b9bdc1480, 2023-11-25, custom)"
   xmlns:inkscape="http://www.inkscape.org/namespaces/inkscape"
   xmlns:sodipodi="http://sodipodi.sourceforge.net/DTD/sodipodi-0.dtd"
   xmlns="http://www.w3.org/2000/svg"
   xmlns:svg="http://www.w3.org/2000/svg">
  <defs
     id="defs5" />
  <sodipodi:namedview
     id="namedview5"
     pagecolor="#ffffff"
     bordercolor="#000000"
     borderopacity="0.25"
     inkscape:showpageshadow="2"
     inkscape:pageopacity="0.0"
     inkscape:pagecheckerboard="0"
     inkscape:deskcolor="#d1d1d1"
     inkscape:zoom="34"
     inkscape:cx="12"
     inkscape:cy="12"
     inkscape:window-width="1850"
     inkscape:window-height="1016"
     inkscape:window-x="1990"
     inkscape:window-y="27"
     inkscape:window-maximized="1"
     inkscape:current-layer="svg5" />
  <path
     stroke="none"
     d="M0 0h24v24H0z"
     fill="none"
     id="path1" />
  <path
     d="M9 7m-4 0a4 4 0 1 0 8 0a4 4 0 1 0 -8 0"
     id="path2"
     style="stroke:#1d9a78;stroke-opacity:1" />
  <path
     d="M3 21v-2a4 4 0 0 1 4 -4h4a4 4 0 0 1 4 4v2"
     id="path3"
     style="stroke:#1d9a78;stroke-opacity:1" />
  <path
     d="M16 3.13a4 4 0 0 1 0 7.75"
     id="path4"
     style="stroke:#1d9a78;stroke-opacity:1" />
  <path
     d="M21 21v-2a4 4 0 0 0 -3 -3.85"
     id="path5"
     style="stroke:#1d9a78;stroke-opacity:1" />
</svg>
